{
  "accessors": [
    {
      "bufferView": 2,
      "componentType": 5126,
      "count": 9033,
      "max": [
        0.423786997795105,
        0.34501999616622925,
        0.9199920296669006
      ],
      "min": [
        0.012719999998807907,
        -0.27900099754333496,
        -0.28082698583602905
      ],
      "type": "VEC3"
    },
    {
      "bufferView": 2,
      "byteOffset": 108396,
      "componentType": 5126,
      "count": 9033,
      "max": [
        0.9998713135719299,
        0.9999904036521912,
        0.999882698059082
      ],
      "min": [
        -0.9998637437820435,
        -0.9999719858169556,
        -0.9999995827674866
      ],
      "type": "VEC3"
    },
    {
      "bufferView": 1,
      "componentType": 5126,
      "count": 9033,
      "max": [
        0.9960939884185791,
        1.9974600076675415
      ],
      "min": [
        0.004269000142812729,
        1.0048799514770508
      ],
      "type": "VEC2"
    },
    {
      "bufferView": 0,
      "componentType": 5125,
      "count": 28176,
      "type": "SCALAR"
    },
    {
      "bufferView": 2,
      "byteOffset": 216792,
      "componentType": 5126,
      "count": 1612,
      "max": [
        0.22671499848365784,
        0.6314749717712402,
        0.6934130191802979
      ],
      "min": [
        -0.25270599126815796,
        -0.6310849785804749,
        0.30088600516319275
      ],
      "type": "VEC3"
    },
    {
      "bufferView": 2,
      "byteOffset": 236136,
      "componentType": 5126,
      "count": 1612,
      "max": [
        0.9474505186080933,
        0.9992504119873047,
        0.8926067352294922
      ],
      "min": [
        -0.9850983619689941,
        -0.9999979138374329,
        -0.9771375060081482
      ],
      "type": "VEC3"
    },
    {
      "bufferView": 1,
      "byteOffset": 72264,
      "componentType": 5126,
      "count": 1612,
      "max": [
        0.9790040254592896,
        1.983049988746643
      ],
      "min": [
        0.024291999638080597,
        1.1035200357437134
      ],
      "type": "VEC2"
    },
    {
      "bufferView": 0,
      "byteOffset": 112704,
      "componentType": 5125,
      "count": 9000,
      "type": "SCALAR"
    },
    {
      "bufferView": 2,
      "byteOffset": 255480,
      "componentType": 5126,
      "count": 4839,
      "max": [
        0.3966270089149475,
        0.10942699760198593,
        0.8554400205612183
      ],
      "min": [
        0.04461999982595444,
        -0.4496060013771057,
        0.5022370219230652
      ],
      "type": "VEC3"
    },
    {
      "bufferView": 2,
      "byteOffset": 313548,
      "componentType": 5126,
      "count": 4839,
      "max": [
        0.9982048273086548,
        0.9866759181022644,
        0.9998769164085388
      ],
      "min": [
        -0.9999192357063293,
        -0.9988171458244324,
        -0.9999578595161438
      ],
      "type": "VEC3"
    },
    {
      "bufferView": 1,
      "byteOffset": 85160,
      "componentType": 5126,
      "count": 4839,
      "max": [
        0.9892579913139343,
        1.9827100038528442
      ],
      "min": [
        0.016143999993801117,
        1.0126899480819702
      ],
      "type": "VEC2"
    },
    {
      "bufferView": 0,
      "byteOffset": 148704,
      "componentType": 5125,
      "count": 25338,
      "type": "SCALAR"
    },
    {
      "bufferView": 2,
      "byteOffset": 371616,
      "componentType": 5126,
      "count": 25658,
      "max": [
        0.44058701395988464,
        0.6930760145187378,
        0.9702069759368896
      ],
      "min": [
        -0.44058701395988464,
        -0.6930760145187378,
        -1.25
      ],
      "type": "VEC3"
    },
    {
      "bufferView": 2,
      "byteOffset": 679512,
      "componentType": 5126,
      "count": 25658,
      "max": [
        0.9999477863311768,
        0.999967634677887,
        0.9998297691345215
      ],
      "min": [
        -0.9999921917915344,
        -0.9999897480010986,
        -0.9999749660491943
      ],
      "type": "VEC3"
    },
    {
      "bufferView": 1,
      "byteOffset": 123872,
      "componentType": 5126,
      "count": 25658,
      "max": [
        0.9985349774360657,
        1.9954299926757813
      ],
      "min": [
        0.001227000029757619,
        1.0014599561691284
      ],
      "type": "VEC2"
    },
    {
      "bufferView": 0,
      "byteOffset": 250056,
      "componentType": 5125,
      "count": 103227,
      "type": "SCALAR"
    },
    {
      "bufferView": 2,
      "byteOffset": 987408,
      "componentType": 5126,
      "count": 1762,
      "max": [
        0.08616799861192703,
        0.06187700107693672,
        1.0710480213165283
      ],
      "min": [
        0.05582499876618385,
        -0.05713199824094772,
        1.0351170301437378
      ],
      "type": "VEC3"
    },
    {
      "bufferView": 2,
      "byteOffset": 1008552,
      "componentType": 5126,
      "count": 1762,
      "max": [
        0.5568747520446777,
        0.9992112517356873,
        0.992433488368988
      ],
      "min": [
        -0.9999472498893738,
        -0.9991130232810974,
        -0.9980790615081787
      ],
      "type": "VEC3"
    },
    {
      "bufferView": 1,
      "byteOffset": 329136,
      "componentType": 5126,
      "count": 1762,
      "max": [
        1.0,
        1.2333999872207642
      ],
      "min": [
        -0.001986999996006489,
        1.0131800174713135
      ],
      "type": "VEC2"
    },
    {
      "bufferView": 0,
      "byteOffset": 662964,
      "componentType": 5125,
      "count": 10320,
      "type": "SCALAR"
    },
    {
      "bufferView": 2,
      "byteOffset": 1029696,
      "componentType": 5126,
      "count": 1778,
      "max": [
        0.3017370104789734,
        0.33530300855636597,
        0.01729400083422661
      ],
      "min": [
        0.10893599689006805,
        0.2906709909439087,
        -0.17386600375175476
      ],
      "type": "VEC3"
    },
    {
      "bufferView": 2,
      "byteOffset": 1051032,
      "componentType": 5126,
      "count": 1778,
      "max": [
        0.9997767806053162,
        0.9999964833259583,
        0.9998894333839417
      ],
      "min": [
        -0.9996530413627625,
        -0.9999985694885254,
        -0.99837726354599
      ],
      "type": "VEC3"
    },
    {
      "bufferView": 1,
      "byteOffset": 343232,
      "componentType": 5126,
      "count": 1778,
      "max": [
        0.9941409826278687,
        1.9946099519729614
      ],
      "min": [
        0.0050849998369812965,
        1.0058599710464478
      ],
      "type": "VEC2"
    },
    {
      "bufferView": 0,
      "byteOffset": 704244,
      "componentType": 5125,
      "count": 5622,
      "type": "SCALAR"
    },
    {
      "bufferView": 2,
      "byteOffset": 1072368,
      "componentType": 5126,
      "count": 10432,
      "max": [
        0.3308260142803192,
        0.12822900712490082,
        1.2258930206298828
      ],
      "min": [
        0.016181999817490578,
        -0.12988600134849548,
        0.7465900182723999
      ],
      "type": "VEC3"
    },
    {
      "bufferView": 2,
      "byteOffset": 1197552,
      "componentType": 5126,
      "count": 10432,
      "max": [
        0.9999272227287292,
        0.9999520182609558,
        0.9997656941413879
      ],
      "min": [
        -0.9999542832374573,
        -0.9999856948852539,
        -0.9999648928642273
      ],
      "type": "VEC3"
    },
    {
      "bufferView": 1,
      "byteOffset": 357456,
      "componentType": 5126,
      "count": 10432,
      "max": [
        0.9960939884185791,
        1.9951399564743042
      ],
      "min": [
        0.0040779998525977135,
        1.0044000148773193
      ],
      "type": "VEC2"
    },
    {
      "bufferView": 0,
      "byteOffset": 726732,
      "componentType": 5125,
      "count": 54348,
      "type": "SCALAR"
    },
    {
      "bufferView": 2,
      "byteOffset": 1322736,
      "componentType": 5126,
      "count": 8025,
      "max": [
        0.4108630120754242,
        0.2865050137042999,
        0.26688599586486816
      ],
      "min": [
        0.03754999861121178,
        -0.2927429974079132,
        -1.034432053565979
      ],
      "type": "VEC3"
    },
    {
      "bufferView": 2,
      "byteOffset": 1419036,
      "componentType": 5126,
      "count": 8025,
      "max": [
        0.9992994070053101,
        0.9999773502349854,
        0.9999544024467468
      ],
      "min": [
        -0.9999199509620667,
        -0.9999805688858032,
        -0.9999746680259705
      ],
      "type": "VEC3"
    },
    {
      "bufferView": 1,
      "byteOffset": 440912,
      "componentType": 5126,
      "count": 8025,
      "max": [
        0.828125,
        1.9958399534225464
      ],
      "min": [
        0.0032289999071508646,
        1.1460000276565552
      ],
      "type": "VEC2"
    },
    {
      "bufferView": 0,
      "byteOffset": 944124,
      "componentType": 5125,
      "count": 38478,
      "type": "SCALAR"
    },
    {
      "bufferView": 2,
      "byteOffset": 1515336,
      "componentType": 5126,
      "count": 40156,
      "max": [
        0.3782390058040619,
        0.1392659991979599,
        1.25
      ],
      "min": [
        -0.0031419999431818724,
        -0.26157400012016296,
        0.26565900444984436
      ],
      "type": "VEC3"
    },
    {
      "bufferView": 2,
      "byteOffset": 1997208,
      "componentType": 5126,
      "count": 40156,
      "max": [
        0.9999891519546509,
        0.999607503414154,
        0.999828577041626
      ],
      "min": [
        -0.9999852776527405,
        -0.9998896718025208,
        -0.9998260140419006
      ],
      "type": "VEC3"
    },
    {
      "bufferView": 1,
      "byteOffset": 505112,
      "componentType": 5126,
      "count": 40156,
      "max": [
        1.0,
        1.9999699592590332
      ],
      "min": [
        0.00215000007301569,
        1.0
      ],
      "type": "VEC2"
    },
    {
      "bufferView": 0,
      "byteOffset": 1098036,
      "componentType": 5125,
      "count": 107772,
      "type": "SCALAR"
    }
  ],
  "asset": {
    "extras": {
      "author": "toheed_zahid (https://sketchfab.com/toheed_zahid)",
      "license": "CC-BY-4.0 (http://creativecommons.org/licenses/by/4.0/)",
      "source": "https://sketchfab.com/3d-models/resident-evil-2-remake-leon-kennedy-d41300b661154cd389c66f02a337bfe5",
      "title": "Resident-evil-2-remake-leon-kennedy"
    },
    "generator": "Sketchfab-15.30.0",
    "version": "2.0"
  },
  "bufferViews": [
    {
      "buffer": 0,
      "byteLength": 1529124,
      "name": "floatBufferViews",
      "target": 34963
    },
    {
      "buffer": 0,
      "byteLength": 826360,
      "byteOffset": 1529124,
      "byteStride": 8,
      "name": "floatBufferViews",
      "target": 34962
    },
    {
      "buffer": 0,
      "byteLength": 2479080,
      "byteOffset": 2355484,
      "byteStride": 12,
      "name": "floatBufferViews",
      "target": 34962
    }
  ],
  "buffers": [
    {
      "byteLength": 4834564,
      "uri": "scene.bin"
    }
  ],
  "images": [
    {
      "uri": "textures/Modelaccess_Material001_baseColor.png"
    },
    {
      "uri": "textures/Modelarms_Material002_baseColor.png"
    },
    {
      "uri": "textures/Modelbandage_Material003_baseColor.png"
    },
    {
      "uri": "textures/Modelbody_Material004_baseColor.png"
    },
    {
      "uri": "textures/Modeleyes_Material005_baseColor.png"
    },
    {
      "uri": "textures/Modelgun_Material006_baseColor.png"
    },
    {
      "uri": "textures/hair_baseColor.png"
    }
  ],
  "materials": [
    {
      "doubleSided": true,
      "name": "Modelaccess_Material001",
      "pbrMetallicRoughness": {
        "baseColorTexture": {
          "index": 0
        },
        "metallicFactor": 0.0
      }
    },
    {
      "doubleSided": true,
      "name": "Modelarms_Material002",
      "pbrMetallicRoughness": {
        "baseColorTexture": {
          "index": 1
        },
        "metallicFactor": 0.0
      }
    },
    {
      "doubleSided": true,
      "name": "Modelbandage_Material003",
      "pbrMetallicRoughness": {
        "baseColorTexture": {
          "index": 2
        },
        "metallicFactor": 0.0
      }
    },
    {
      "doubleSided": true,
      "name": "Modelbody_Material004",
      "pbrMetallicRoughness": {
        "baseColorTexture": {
          "index": 3
        },
        "metallicFactor": 0.0
      }
    },
    {
      "doubleSided": true,
      "name": "Modeleyes_Material005",
      "pbrMetallicRoughness": {
        "baseColorTexture": {
          "index": 4
        },
        "metallicFactor": 0.0
      }
    },
    {
      "doubleSided": true,
      "name": "Modelgun_Material006",
      "pbrMetallicRoughness": {
        "baseColorTexture": {
          "index": 5
        },
        "metallicFactor": 0.0
      }
    },
    {
      "doubleSided": true,
      "name": "Modelhead_Material007",
      "pbrMetallicRoughness": {
        "baseColorTexture": {
          "index": 4
        },
        "metallicFactor": 0.0
      }
    },
    {
      "doubleSided": true,
      "name": "Modelpaants_Material008",
      "pbrMetallicRoughness": {
        "baseColorTexture": {
          "index": 3
        },
        "metallicFactor": 0.0
      }
    },
    {
      "doubleSided": true,
      "name": "hair",
      "pbrMetallicRoughness": {
        "baseColorTexture": {
          "index": 6
        },
        "metallicFactor": 0.0
      }
    }
  ],
  "meshes": [
    {
      "name": "Object_0",
      "primitives": [
        {
          "attributes": {
            "NORMAL": 1,
            "POSITION": 0,
            "TEXCOORD_0": 2
          },
          "indices": 3,
          "material": 0,
          "mode": 4
        }
      ]
    },
    {
      "name": "Object_1",
      "primitives": [
        {
          "attributes": {
            "NORMAL": 5,
            "POSITION": 4,
            "TEXCOORD_0": 6
          },
          "indices": 7,
          "material": 1,
          "mode": 4
        }
      ]
    },
    {
      "name": "Object_2",
      "primitives": [
        {
          "attributes": {
            "NORMAL": 9,
            "POSITION": 8,
            "TEXCOORD_0": 10
          },
          "indices": 11,
          "material": 2,
          "mode": 4
        }
      ]
    },
    {
      "name": "Object_3",
      "primitives": [
        {
          "attributes": {
            "NORMAL": 13,
            "POSITION": 12,
            "TEXCOORD_0": 14
          },
          "indices": 15,
          "material": 3,
          "mode": 4
        }
      ]
    },
    {
      "name": "Object_4",
      "primitives": [
        {
          "attributes": {
            "NORMAL": 17,
            "POSITION": 16,
            "TEXCOORD_0": 18
          },
          "indices": 19,
          "material": 4,
          "mode": 4
        }
      ]
    },
    {
      "name": "Object_5",
      "primitives": [
        {
          "attributes": {
            "NORMAL": 21,
            "POSITION": 20,
            "TEXCOORD_0": 22
          },
          "indices": 23,
          "material": 5,
          "mode": 4
        }
      ]
    },
    {
      "name": "Object_6",
      "primitives": [
        {
          "attributes": {
            "NORMAL": 25,
            "POSITION": 24,
            "TEXCOORD_0": 26
          },
          "indices": 27,
          "material": 6,
          "mode": 4
        }
      ]
    },
    {
      "name": "Object_7",
      "primitives": [
        {
          "attributes": {
            "NORMAL": 29,
            "POSITION": 28,
            "TEXCOORD_0": 30
          },
          "indices": 31,
          "material": 7,
          "mode": 4
        }
      ]
    },
    {
      "name": "Object_8",
      "primitives": [
        {
          "attributes": {
            "NORMAL": 33,
            "POSITION": 32,
            "TEXCOORD_0": 34
          },
          "indices": 35,
          "material": 8,
          "mode": 4
        }
      ]
    }
  ],
  "nodes": [
    {
      "children": [
        1
      ],
      "matrix": [
        1.0,
        0.0,
        0.0,
        0.0,
        0.0,
        2.220446049250313e-16,
        -1.0,
        0.0,
        0.0,
        1.0,
        2.220446049250313e-16,
        0.0,
        0.0,
        0.0,
        0.0,
        1.0
      ],
      "name": "Sketchfab_model"
    },
    {
      "children": [
        2,
        3,
        4,
        5,
        6,
        7,
        8,
        9,
        10
      ],
      "name": "SYOEM7MWIAVZCVFPIWOS89N5I.obj.cleaner.materialmerger.gles"
    },
    {
      "mesh": 0,
      "name": "Object_2"
    },
    {
      "mesh": 1,
      "name": "Object_3"
    },
    {
      "mesh": 2,
      "name": "Object_4"
    },
    {
      "mesh": 3,
      "name": "Object_5"
    },
    {
      "mesh": 4,
      "name": "Object_6"
    },
    {
      "mesh": 5,
      "name": "Object_7"
    },
    {
      "mesh": 6,
      "name": "Object_8"
    },
    {
      "mesh": 7,
      "name": "Object_9"
    },
    {
      "mesh": 8,
      "name": "Object_10"
    }
  ],
  "samplers": [
    {
      "magFilter": 9729,
      "minFilter": 9987,
      "wrapS": 10497,
      "wrapT": 10497
    }
  ],
  "scene": 0,
  "scenes": [
    {
      "name": "Sketchfab_Scene",
      "nodes": [
        0
      ]
    }
  ],
  "textures": [
    {
      "sampler": 0,
      "source": 0
    },
    {
      "sampler": 0,
      "source": 1
    },
    {
      "sampler": 0,
      "source": 2
    },
    {
      "sampler": 0,
      "source": 3
    },
    {
      "sampler": 0,
      "source": 4
    },
    {
      "sampler": 0,
      "source": 5
    },
    {
      "sampler": 0,
      "source": 6
    }
  ]
}
